<svg width="25" height="25" viewBox="0 0 25 25" fill="none" xmlns="http://www.w3.org/2000/svg">
<path d="M12.5001 0.0799561C5.6471 0.0799561 0.0800781 5.64698 0.0800781 12.5C0.0800781 19.3529 5.6471 24.92 12.5001 24.92C19.3531 24.92 24.9201 19.3529 24.9201 12.5C24.9201 5.64698 19.3531 0.0799561 12.5001 0.0799561ZM12.5001 1.15996C18.7694 1.15996 23.8401 6.23065 23.8401 12.5C23.8401 18.7693 18.7694 23.84 12.5001 23.84C6.23077 23.84 1.16008 18.7693 1.16008 12.5C1.16008 6.23065 6.23077 1.15996 12.5001 1.15996ZM12.4916 8.17257C12.3486 8.17481 12.2123 8.2337 12.1126 8.33632C12.013 8.43895 11.9581 8.57692 11.9601 8.71996V11.96H8.72008C8.64852 11.9589 8.57748 11.9722 8.51108 11.9988C8.44467 12.0255 8.38423 12.0651 8.33327 12.1154C8.28232 12.1656 8.24185 12.2255 8.21423 12.2915C8.18661 12.3575 8.17239 12.4284 8.17239 12.5C8.17239 12.5715 8.18661 12.6424 8.21423 12.7084C8.24185 12.7744 8.28232 12.8343 8.33327 12.8845C8.38423 12.9348 8.44467 12.9744 8.51108 13.0011C8.57748 13.0277 8.64852 13.041 8.72008 13.04H11.9601V16.28C11.9591 16.3515 11.9723 16.4226 11.999 16.489C12.0257 16.5554 12.0653 16.6158 12.1155 16.6668C12.1658 16.7177 12.2256 16.7582 12.2916 16.7858C12.3577 16.8134 12.4285 16.8276 12.5001 16.8276C12.5716 16.8276 12.6425 16.8134 12.7085 16.7858C12.7745 16.7582 12.8344 16.7177 12.8846 16.6668C12.9349 16.6158 12.9745 16.5554 13.0012 16.489C13.0279 16.4226 13.0411 16.3515 13.0401 16.28V13.04H16.2801C16.3516 13.041 16.4227 13.0277 16.4891 13.0011C16.5555 12.9744 16.6159 12.9348 16.6669 12.8845C16.7178 12.8343 16.7583 12.7744 16.7859 12.7084C16.8135 12.6424 16.8278 12.5715 16.8278 12.5C16.8278 12.4284 16.8135 12.3575 16.7859 12.2915C16.7583 12.2255 16.7178 12.1656 16.6669 12.1154C16.6159 12.0651 16.5555 12.0255 16.4891 11.9988C16.4227 11.9722 16.3516 11.9589 16.2801 11.96H13.0401V8.71996C13.0411 8.64771 13.0276 8.576 13.0003 8.50907C12.9731 8.44214 12.9327 8.38136 12.8816 8.33032C12.8304 8.27928 12.7696 8.23902 12.7026 8.21192C12.6356 8.18482 12.5639 8.17144 12.4916 8.17257Z" fill="white"/>
</svg>
