<svg width="31" height="30" viewBox="0 0 31 30" xmlns="http://www.w3.org/2000/svg">
<path fill="white" d="M16.7202 16.8781C15.2061 16.3438 13.6327 16.0469 11.9999 16.0469C7.13112 16.0469 2.61862 18.6891 0.213932 22.9047C-0.0235676 23.3203 0.12487 23.8844 0.540495 24.1219C0.688932 24.2109 0.83737 24.2406 0.985807 24.2406C1.28268 24.2406 1.60924 24.0922 1.75768 23.7953C3.86549 20.1141 7.78424 17.8281 11.9999 17.8281C13.3952 17.8281 14.7905 18.0656 16.0967 18.5703C16.1858 18.6 16.3046 18.6297 16.3936 18.6297C16.7499 18.6297 17.1061 18.4219 17.2249 18.0359C17.403 17.5609 17.1655 17.0563 16.7202 16.8781ZM11.9999 0.015625C8.22956 0.015625 5.17174 3.07344 5.17174 6.84375C5.17174 10.6141 8.22956 13.6719 11.9999 13.6719C15.7702 13.6719 18.828 10.6141 18.828 6.84375C18.828 3.07344 15.7702 0.015625 11.9999 0.015625ZM11.9999 11.8906C9.20924 11.8906 6.95299 9.63437 6.95299 6.84375C6.95299 4.05312 9.20924 1.79688 11.9999 1.79688C14.7905 1.79688 17.0467 4.05312 17.0467 6.84375C17.0467 9.63437 14.7905 11.8906 11.9999 11.8906ZM20.2827 19.2828C17.9671 21.5984 17.9671 25.3687 20.2827 27.6844C22.5983 30 26.3686 30 28.6842 27.6844C30.9999 25.3687 30.9999 21.5984 28.6842 19.2828C26.3389 16.9375 22.5983 16.9375 20.2827 19.2828ZM26.5171 24.3594H25.3296V25.5469C25.3296 26.0516 24.9436 26.4375 24.4389 26.4375C23.9342 26.4375 23.5483 26.0516 23.5483 25.5469V24.3594H22.3608C21.8561 24.3594 21.4702 23.9734 21.4702 23.4688C21.4702 22.9641 21.8561 22.5781 22.3608 22.5781H23.5483V21.3906C23.5483 20.8859 23.9342 20.5 24.4389 20.5C24.9436 20.5 25.3296 20.8859 25.3296 21.3906V22.5781H26.5171C27.0217 22.5781 27.4077 22.9641 27.4077 23.4688C27.4077 23.9734 27.0217 24.3594 26.5171 24.3594Z"/>
</svg>
