<svg xmlns="http://www.w3.org/2000/svg" xmlns:xlink="http://www.w3.org/1999/xlink" viewBox="0,0,256,256" width="8px" height="8px"><g fill="#ffffff" fill-rule="nonzero" stroke="none" stroke-width="1" stroke-linecap="butt" stroke-linejoin="miter" stroke-miterlimit="10" stroke-dasharray="" stroke-dashoffset="0" font-family="none" font-weight="none" font-size="none" text-anchor="none" style="mix-blend-mode: normal"><g transform="scale(5.12,5.12)"><path d="M13.08203,12.98047c-0.58984,-0.01953 -1.15625,0.22266 -1.55078,0.66016l-10.50781,11.35938l10.50781,11.35938c0.48047,0.53516 1.21484,0.77344 1.92188,0.61719c0.70313,-0.15625 1.26953,-0.67969 1.48047,-1.37109c0.21094,-0.69141 0.03516,-1.44141 -0.46484,-1.96484l-6.14453,-6.64062h38.67578c0.72266,0.01172 1.39063,-0.36719 1.75391,-0.99219c0.36719,-0.62109 0.36719,-1.39453 0,-2.01562c-0.36328,-0.625 -1.03125,-1.00391 -1.75391,-0.99219h-38.67578l6.14453,-6.64062c0.54297,-0.57422 0.69922,-1.41016 0.39844,-2.14062c-0.29687,-0.72656 -0.99609,-1.21484 -1.78516,-1.23828z"></path></g></g></svg>