<svg width="15" height="15" viewBox="0 0 15 15" fill="none" xmlns="http://www.w3.org/2000/svg">
<g id="award-prize-svgrepo-com 1">
<g id="Group">
<g id="Group_2">
<path id="Vector" d="M7.50013 8.0697L8.00263 9.55057L9.5691 9.62144L8.276 10.6559L8.79323 12.2077L7.50013 11.1822L6.20702 12.2077L6.72426 10.6559L5.43115 9.62144L6.99763 9.55057L7.50013 8.0697Z" fill="#FFD600"/>
<path id="Vector_2" d="M3.36229 4.60257H3.36202C2.50521 4.6023 1.81055 3.90765 1.81055 3.05083V2.01636C2.66763 2.01636 3.36229 2.71102 3.36229 3.5681V4.60257Z" fill="#FFD600"/>
<path id="Vector_3" d="M2.38618 6.98952C1.55421 7.19539 0.713154 6.6877 0.507314 5.85573L0.258789 4.85149C1.09076 4.64589 1.93205 5.15331 2.13792 5.98528L2.38618 6.98952Z" fill="#FFD600"/>
<path id="Vector_4" d="M2.72147 9.36908C2.00689 9.84211 1.04405 9.64632 0.571055 8.93176L0 8.069C0.71458 7.59597 1.67742 7.79176 2.15042 8.50658L2.72147 9.36908Z" fill="#FFD600"/>
<path id="Vector_5" d="M4.09414 11.64C3.66562 12.3822 2.71672 12.6365 1.97448 12.2079L1.07861 11.6907C1.50714 10.9484 2.45604 10.6942 3.19827 11.1228L4.09414 11.64Z" fill="#FFD600"/>
<path id="Vector_6" d="M2.84473 5.73017C3.27378 4.98819 4.07525 4.51051 4.88654 4.78698L5.86541 5.12111C5.58894 5.93214 4.70704 6.36535 3.89602 6.08861L2.84473 5.73017Z" fill="#FFD600"/>
<path id="Vector_7" d="M2.76172 9.19841C3.59111 9.41383 4.43835 8.91625 4.6538 8.08686L4.91398 7.08549C4.08459 6.87007 3.23735 7.36765 3.0219 8.19731L2.76172 9.19841Z" fill="#FFD600"/>
<path id="Vector_8" d="M11.6377 4.60257H11.638C12.4948 4.6023 13.1894 3.90765 13.1894 3.05083V2.01636C12.3324 2.01636 11.6377 2.71102 11.6377 3.5681V4.60257Z" fill="#FFD600"/>
<path id="Vector_9" d="M12.6143 6.98952C13.4462 7.19539 14.2873 6.6877 14.4931 5.85573L14.7417 4.85149C13.9097 4.64589 13.0684 5.15331 12.8625 5.98528L12.6143 6.98952Z" fill="#FFD600"/>
<path id="Vector_10" d="M12.2783 9.36908C12.9929 9.84211 13.9557 9.64632 14.4287 8.93176L14.9998 8.069C14.2852 7.59597 13.3224 7.79176 12.8494 8.50658L12.2783 9.36908Z" fill="#FFD600"/>
<path id="Vector_11" d="M10.9058 11.64C11.3343 12.3822 12.2832 12.6365 13.0254 12.2079L13.9213 11.6907C13.4928 10.9484 12.5439 10.6942 11.8016 11.1228L10.9058 11.64Z" fill="#FFD600"/>
<path id="Vector_12" d="M12.155 5.73017C11.7259 4.98819 10.9244 4.51051 10.1131 4.78698L9.13428 5.12111C9.41075 5.93214 10.2926 6.36535 11.1037 6.08861L12.155 5.73017Z" fill="#FFD600"/>
<path id="Vector_13" d="M12.2382 9.19841C11.4088 9.41383 10.5616 8.91625 10.3461 8.08686L10.0859 7.08549C10.9153 6.87007 11.7626 7.36765 11.978 8.19731L12.2382 9.19841Z" fill="#FFD600"/>
</g>
<g id="Group_3">
<path id="Vector_14" d="M5.1721 12.9835C5.11236 12.9835 5.05236 12.9628 5.00373 12.9209C2.77028 11.0009 2.26623 9.00542 2.23675 7.66965C2.20157 6.07215 2.83002 4.54681 3.96073 3.48465C4.0647 3.38715 4.22841 3.39208 4.32615 3.49602C4.42391 3.60026 4.41899 3.76394 4.31478 3.86171C3.29091 4.82352 2.72194 6.20739 2.75402 7.65826C2.78118 8.88879 3.25186 10.733 5.34076 12.5289C5.44913 12.622 5.46152 12.7852 5.36844 12.8935C5.3172 12.953 5.24478 12.9835 5.1721 12.9835Z" fill="#FFD600"/>
<path id="Vector_15" d="M9.82764 12.9835C9.88738 12.9835 9.94738 12.9628 9.99601 12.9209C12.2295 11.0009 12.7335 9.00542 12.763 7.66965C12.7982 6.07215 12.1697 4.54681 11.039 3.48465C10.935 3.38715 10.7713 3.39208 10.6736 3.49602C10.5758 3.60026 10.5807 3.76394 10.685 3.86171C11.7088 4.82352 12.2778 6.20739 12.2457 7.65826C12.2186 8.88879 11.7479 10.733 9.65898 12.5289C9.55061 12.622 9.53822 12.7852 9.63129 12.8935C9.68253 12.953 9.75496 12.9835 9.82764 12.9835Z" fill="#FFD600"/>
</g>
</g>
</g>
</svg>
