<svg width="24" height="24" viewBox="0 0 24 24" fill="none" xmlns="http://www.w3.org/2000/svg">
<path id="Vector" fill-rule="evenodd" clip-rule="evenodd" d="M3.42731 3.42723C7.99693 -1.14241 15.4059 -1.14241 19.9757 3.42723C24.5454 7.99699 24.5454 15.406 19.9757 19.9757C15.4059 24.5454 7.99693 24.5454 3.42731 19.9757C-1.14244 15.406 -1.14244 7.99699 3.42731 3.42723ZM5.8397 4.29442L19.1085 17.5634C22.0503 13.8555 21.808 8.4497 18.3806 5.02219C14.9532 1.59481 9.54736 1.35263 5.8397 4.2943V4.29442ZM17.5634 19.1086L4.29462 5.83964C1.35271 9.54755 1.5949 14.9533 5.02239 18.3808C8.45 21.8082 13.8556 22.0504 17.5635 19.1087L17.5634 19.1086Z" fill="white"/>
</svg>
