<svg width="20" height="22" viewBox="0 0 20 22" fill="none" xmlns="http://www.w3.org/2000/svg">
<path id="Vector" d="M9.90133 6.25382e-05C9.88893 0.00026356 9.87646 0.000943327 9.86411 0.00216877C9.72294 0.0217759 10.3205 -0.262509 0.269368 4.87456C0.118789 4.95299 0.0246952 5.09512 0.00587283 5.24708C-0.00353838 5.3157 0.0011856 16.6486 0.0011856 16.6731C0.0105968 16.8496 0.0718064 16.9918 0.227091 17.0947C0.283559 17.1291 9.31828 21.7465 9.71826 21.9524C9.80766 21.9965 9.89233 22.0063 9.98644 21.9965C10.1088 21.9818 9.48772 22.2808 19.5671 17.129C19.5718 17.129 19.6188 17.0996 19.6329 17.0849C19.7412 17.0065 19.8071 16.8937 19.8306 16.7466C19.8353 16.7172 19.84 5.32066 19.8306 5.25694C19.7977 5.07067 19.6989 4.94319 19.5671 4.87456L10.1276 0.0511866C10.0741 0.0211632 9.98819 -0.00134481 9.90133 6.25382e-05ZM3.67624 0.49723C3.41273 0.49723 3.19631 0.722769 3.19631 0.997269C3.19631 1.27667 3.41273 1.49721 3.67624 1.49721C3.93976 1.49721 4.15627 1.27177 4.15627 0.997269C4.15627 0.722769 3.93976 0.49723 3.67624 0.49723ZM16.1602 0.49723C15.8967 0.49723 15.6802 0.722769 15.6802 0.997269C15.6802 1.27667 15.8967 1.49721 16.1602 1.49721C16.4238 1.49721 16.6402 1.27177 16.6402 0.997269C16.6402 0.722769 16.4238 0.49723 16.1602 0.49723ZM9.43592 1.30114V3.67851L3.41744 6.51666L1.50229 5.36474L9.43592 1.30114ZM10.4006 1.30114L18.3389 5.35986L16.4191 6.51666L14.438 5.58044C14.198 5.4677 13.911 5.58042 13.8028 5.83041C13.6945 6.0804 13.8027 6.37941 14.0427 6.49215L15.2567 7.06562L9.92063 9.45773L4.58446 7.06562L9.92063 4.55106L11.8452 5.45789C12.0851 5.57063 12.3722 5.46281 12.4804 5.20792C12.5886 4.95793 12.4804 4.65892 12.2404 4.54618L10.4006 3.67851V1.30114ZM0.961147 6.19316L2.90929 7.36471V14.6389L0.961147 15.8104V6.19316ZM18.8753 6.19316V15.8104L16.9225 14.6389V7.36471L18.8753 6.19316ZM3.86915 7.83526L9.43592 10.3303V17.2271L7.99134 16.5457C7.75135 16.4329 7.46431 16.5457 7.35608 16.7957C7.24785 17.0457 7.35606 17.3447 7.59605 17.4574L9.43592 18.3251V20.7024L1.4976 16.6437L3.41744 15.4869C5.5726 16.4869 5.48792 16.5016 5.67144 16.5016C5.85496 16.5016 6.0291 16.3937 6.1091 16.2074C6.21732 15.9575 6.10902 15.6584 5.86904 15.5457L3.86915 14.6046V7.83526ZM15.9626 7.83526V14.6046L10.3959 17.2271V10.3303L15.9626 7.83526ZM5.1155 11.501C4.96141 11.5014 4.81028 11.5783 4.71616 11.7223C4.56558 11.9527 4.62679 12.2616 4.84796 12.4135L6.28785 13.4134C6.50431 13.5654 6.80552 13.5066 6.9561 13.2762C7.10198 13.0508 7.04547 12.742 6.82431 12.5851L5.38441 11.5851C5.30148 11.5281 5.20794 11.5007 5.1155 11.501ZM14.7207 11.5026C14.6285 11.5015 14.535 11.5281 14.4521 11.5851L13.0122 12.5851C12.6169 12.8596 12.8051 13.5017 13.2804 13.5017C13.3698 13.5017 13.464 13.4723 13.5439 13.4184L14.9838 12.4184C15.205 12.2665 15.2661 11.9528 15.1155 11.7273C15.0244 11.5833 14.8744 11.5044 14.7207 11.5026ZM14.7207 13.0022C14.6285 13.0014 14.535 13.0281 14.4521 13.085L13.0122 14.085C12.6169 14.3595 12.8098 15.0016 13.2804 15.0016C13.3698 15.0016 13.464 14.9723 13.5439 14.9183L14.9838 13.9184C15.205 13.7664 15.2661 13.4527 15.1155 13.2223C15.0244 13.0814 14.8744 13.0036 14.7207 13.0022ZM8.00071 13.5017C7.7372 13.5017 7.52078 13.7271 7.52078 14.0016C7.52078 14.281 7.73249 14.5017 8.00071 14.5017C8.26423 14.5017 8.48065 14.2761 8.48065 14.0016C8.48065 13.7271 8.26423 13.5017 8.00071 13.5017ZM16.4144 15.4869L18.3342 16.6388L10.3959 20.6976V18.3251L16.4144 15.4869ZM19.5201 18.5064C19.2566 18.5064 19.04 18.7319 19.04 19.0064C19.04 19.2809 19.2566 19.5064 19.5201 19.5064C19.7836 19.5064 20 19.2809 20 19.0064C20 18.727 19.7883 18.5064 19.5201 18.5064ZM1.75641 19.5064C1.4929 19.5064 1.27639 19.7318 1.27639 20.0063C1.27639 20.2808 1.4929 20.5064 1.75641 20.5064C2.01993 20.5064 2.23635 20.2808 2.23635 20.0063C2.23635 19.7269 2.01993 19.5064 1.75641 19.5064ZM16.1602 20.5064C15.8967 20.5064 15.6802 20.7318 15.6802 21.0063C15.6802 21.2808 15.8967 21.5064 16.1602 21.5064C16.4238 21.5064 16.6402 21.2808 16.6402 21.0063C16.6402 20.7269 16.4238 20.5064 16.1602 20.5064Z" fill="white"/>
</svg>
