<svg width="22" height="22" viewBox="0 0 22 22" xmlns="http://www.w3.org/2000/svg">
<path fill="black" d="M7.76172 0.255916C6.53593 0.309993 5.35957 0.754763 4.40463 1.5252C3.44969 2.29565 2.76624 3.35136 2.4542 4.538C2.14215 5.72464 2.21788 6.97999 2.6703 8.12052C3.12272 9.26104 3.92812 10.2269 4.96875 10.877C3.57068 11.4712 2.37804 12.4631 1.53909 13.7295C0.700145 14.9959 0.251874 16.481 0.25 18.0001V20.0001C0.250179 20.1575 0.299886 20.3108 0.392078 20.4384C0.48427 20.566 0.614274 20.6614 0.763672 20.711C3.27702 21.4373 5.88407 21.7875 8.5 21.7501C13.124 21.7501 15.2479 20.7159 15.3359 20.6719C15.4607 20.6096 15.5655 20.5137 15.6386 20.395C15.7118 20.2763 15.7504 20.1395 15.75 20.0001V18.0001C15.7485 16.4814 15.3008 14.9967 14.4625 13.7303C13.6243 12.464 12.4325 11.4718 11.0352 10.877C11.8641 10.361 12.5482 9.6427 13.0232 8.78956C13.4981 7.93641 13.7482 6.97648 13.75 6.00006C13.7499 5.22497 13.5931 4.45792 13.2889 3.74498C12.9848 3.03204 12.5397 2.38795 11.9804 1.8514C11.421 1.31486 10.759 0.896937 10.034 0.622757C9.30905 0.348576 8.53614 0.223797 7.76172 0.255916ZM8 1.75006C9.12676 1.75138 10.207 2.19957 11.0037 2.99631C11.8005 3.79306 12.2487 4.87329 12.25 6.00006C12.25 6.84063 12.0007 7.66232 11.5337 8.36123C11.0667 9.06014 10.403 9.60487 9.6264 9.92655C8.84982 10.2482 7.99529 10.3324 7.17087 10.1684C6.34645 10.0044 5.58917 9.59963 4.9948 9.00526C4.40042 8.41089 3.99565 7.65361 3.83166 6.82919C3.66768 6.00477 3.75184 5.15024 4.07351 4.37365C4.39518 3.59707 4.93992 2.93331 5.63883 2.46631C6.33774 1.99932 7.15943 1.75006 8 1.75006ZM20.9668 7.25006C20.8162 7.25722 20.6712 7.30963 20.5508 7.40045L17.0703 10.0098L15.5293 8.47076C15.4615 8.39395 15.3787 8.33184 15.286 8.28825C15.1933 8.24467 15.0927 8.22053 14.9903 8.21734C14.8879 8.21414 14.786 8.23195 14.6908 8.26967C14.5955 8.30738 14.509 8.36421 14.4366 8.43664C14.3642 8.50907 14.3073 8.59557 14.2696 8.69081C14.2319 8.78604 14.2141 8.88799 14.2173 8.99038C14.2205 9.09276 14.2446 9.1934 14.2882 9.2861C14.3318 9.3788 14.3939 9.46158 14.4707 9.52935L16.4707 11.5294C16.54 11.5993 16.6224 11.6548 16.7133 11.6927C16.8041 11.7306 16.9016 11.7501 17 11.7501C17.1621 11.7498 17.3197 11.6971 17.4492 11.5997L21.4492 8.59967C21.5775 8.5036 21.6716 8.36897 21.7178 8.2155C21.764 8.06203 21.7598 7.89781 21.7059 7.74689C21.652 7.59597 21.5511 7.46631 21.4181 7.3769C21.2851 7.28749 21.1269 7.24303 20.9668 7.25006ZM7.81836 11.752C8.65411 11.7277 9.48625 11.8713 10.2655 12.1744C11.0447 12.4775 11.7553 12.9338 12.355 13.5164C12.9547 14.099 13.4314 14.796 13.7569 15.5662C14.0824 16.3363 14.2501 17.1639 14.25 18.0001V19.4883C12.3867 20.0495 10.4451 20.3067 8.5 20.2501C6.22476 20.2625 3.95699 19.9888 1.75 19.4356V18.0001C1.74982 16.3738 2.38354 14.8115 3.51658 13.6449C4.64963 12.4783 6.19278 11.7993 7.81836 11.752Z" />
</svg>
