<svg width="19" height="13" viewBox="0 0 19 13" fill="none" xmlns="http://www.w3.org/2000/svg">
<g id="Group">
<path id="Vector" d="M13.7626 5.55636C15.2944 5.55636 16.5407 4.31006 16.5407 2.77818C16.5407 1.24629 15.2944 0 13.7626 0C12.2307 0 10.9844 1.24629 10.9844 2.77818C10.9844 4.31006 12.2307 5.55636 13.7626 5.55636ZM13.7626 0.854824C14.8231 0.854824 15.6859 1.71764 15.6859 2.77818C15.6859 3.83871 14.8231 4.70153 13.7626 4.70153C12.702 4.70153 11.8392 3.83871 11.8392 2.77818C11.8392 1.71764 12.702 0.854824 13.7626 0.854824Z" fill="#F2F700"/>
<path id="Vector_2" d="M13.7628 6.58215C12.2931 6.58215 10.8917 7.2143 9.91789 8.31646C9.76163 8.49337 9.7783 8.76345 9.9552 8.91976C10.1322 9.07602 10.4022 9.0593 10.5585 8.88244C11.2751 8.07138 12.2694 7.56601 13.3353 7.45869V7.88102C13.3353 8.11708 13.5267 8.30843 13.7628 8.30843C13.9988 8.30843 14.1902 8.11708 14.1902 7.88102V7.45822C16.347 7.67334 18.0369 9.49851 18.0369 11.711C18.0369 11.9471 18.2283 12.1384 18.4643 12.1384C18.7003 12.1384 18.8917 11.9471 18.8917 11.711C18.8917 8.883 16.5909 6.58215 13.7628 6.58215Z" fill="#F2F700"/>
<path id="Vector_3" d="M5.12901 5.55636C6.6609 5.55636 7.90719 4.31006 7.90719 2.77818C7.90719 1.24629 6.6609 0 5.12901 0C3.59712 0 2.35083 1.24629 2.35083 2.77818C2.35083 4.31006 3.59712 5.55636 5.12901 5.55636ZM5.12901 0.854824C6.18955 0.854824 7.05236 1.71764 7.05236 2.77818C7.05236 3.83871 6.18955 4.70153 5.12901 4.70153C4.06847 4.70153 3.20565 3.83871 3.20565 2.77818C3.20565 1.71764 4.06847 0.854824 5.12901 0.854824Z" fill="#F2F700"/>
<path id="Vector_4" d="M5.12894 6.58215C2.30084 6.58215 0 8.883 0 11.7111C0 11.9472 0.191352 12.1385 0.427412 12.1385C0.663472 12.1385 0.854824 11.9472 0.854824 11.7111C0.854824 9.4986 2.54473 7.67342 4.70153 7.45831V7.8811C4.70153 8.11716 4.89288 8.30851 5.12894 8.30851C5.365 8.30851 5.55636 8.11716 5.55636 7.8811V7.45831C7.71316 7.67342 9.40306 9.4986 9.40306 11.7111C9.40306 11.9472 9.59446 12.1385 9.83048 12.1385C10.0665 12.1385 10.2579 11.9472 10.2579 11.7111C10.2579 8.883 7.95704 6.58215 5.12894 6.58215Z" fill="#F2F700"/>
<path id="Vector_5" d="M5.12883 8.73584C4.89277 8.73584 4.70142 8.92719 4.70142 9.16325V11.7277C4.70142 11.9638 4.89277 12.1551 5.12883 12.1551C5.36489 12.1551 5.55624 11.9638 5.55624 11.7277V9.16325C5.55624 8.92719 5.36489 8.73584 5.12883 8.73584Z" fill="#F2F700"/>
<path id="Vector_6" d="M13.7629 8.73584C13.5268 8.73584 13.3354 8.92719 13.3354 9.16325V11.7277C13.3354 11.9638 13.5268 12.1551 13.7629 12.1551C13.9989 12.1551 14.1903 11.9638 14.1903 11.7277V9.16325C14.1903 8.92719 13.9989 8.73584 13.7629 8.73584Z" fill="#F2F700"/>
</g>
</svg>
