<svg width="40" height="39" viewBox="0 0 64 62" fill="none" xmlns="http://www.w3.org/2000/svg">
<g id="icons8-cube 1">
<path id="Vector" d="M31.9013 24.0001C31.8889 24.0003 31.8765 24.0009 31.8641 24.0022C31.7229 24.0218 32.3205 23.7375 22.2694 28.8746C22.1188 28.953 22.0247 29.0951 22.0059 29.2471C21.9965 29.3157 22.0012 40.6486 22.0012 40.6731C22.0106 40.8496 22.0718 40.9918 22.2271 41.0947C22.2836 41.1291 31.3183 45.7465 31.7183 45.9524C31.8077 45.9965 31.8923 46.0063 31.9864 45.9965C32.1088 45.9818 31.4877 46.2808 41.5671 41.129C41.5718 41.129 41.6188 41.0996 41.6329 41.0849C41.7412 41.0065 41.8071 40.8937 41.8306 40.7466C41.8353 40.7172 41.84 29.3207 41.8306 29.2569C41.7977 29.0707 41.6989 28.9432 41.5671 28.8746L32.1276 24.0512C32.0741 24.0212 31.9882 23.9987 31.9013 24.0001ZM25.6762 24.4972C25.4127 24.4972 25.1963 24.7228 25.1963 24.9973C25.1963 25.2767 25.4127 25.4972 25.6762 25.4972C25.9398 25.4972 26.1563 25.2718 26.1563 24.9973C26.1563 24.7228 25.9398 24.4972 25.6762 24.4972ZM38.1602 24.4972C37.8967 24.4972 37.6802 24.7228 37.6802 24.9973C37.6802 25.2767 37.8967 25.4972 38.1602 25.4972C38.4238 25.4972 38.6402 25.2718 38.6402 24.9973C38.6402 24.7228 38.4238 24.4972 38.1602 24.4972ZM31.4359 25.3011V27.6785L25.4174 30.5167L23.5023 29.3647L31.4359 25.3011ZM32.4006 25.3011L40.3389 29.3599L38.4191 30.5167L36.438 29.5804C36.198 29.4677 35.911 29.5804 35.8028 29.8304C35.6945 30.0804 35.8027 30.3794 36.0427 30.4921L37.2567 31.0656L31.9206 33.4577L26.5845 31.0656L31.9206 28.5511L33.8452 29.4579C34.0851 29.5706 34.3722 29.4628 34.4804 29.2079C34.5886 28.9579 34.4804 28.6589 34.2404 28.5462L32.4006 27.6785V25.3011ZM22.9611 30.1932L24.9093 31.3647V38.6389L22.9611 39.8104V30.1932ZM40.8753 30.1932V39.8104L38.9225 38.6389V31.3647L40.8753 30.1932ZM25.8692 31.8353L31.4359 34.3303V41.2271L29.9913 40.5457C29.7514 40.4329 29.4643 40.5457 29.3561 40.7957C29.2479 41.0457 29.3561 41.3447 29.596 41.4574L31.4359 42.3251V44.7024L23.4976 40.6437L25.4174 39.4869C27.5726 40.4869 27.4879 40.5016 27.6714 40.5016C27.855 40.5016 28.0291 40.3937 28.1091 40.2074C28.2173 39.9575 28.109 39.6584 27.869 39.5457L25.8692 38.6046V31.8353ZM37.9626 31.8353V38.6046L32.3959 41.2271V34.3303L37.9626 31.8353ZM27.1155 35.501C26.9614 35.5014 26.8103 35.5783 26.7162 35.7223C26.5656 35.9527 26.6268 36.2616 26.848 36.4135L28.2879 37.4134C28.5043 37.5654 28.8055 37.5066 28.9561 37.2762C29.102 37.0508 29.0455 36.742 28.8243 36.5851L27.3844 35.5851C27.3015 35.5281 27.2079 35.5007 27.1155 35.501ZM36.7207 35.5026C36.6285 35.5015 36.535 35.5281 36.4521 35.5851L35.0122 36.5851C34.6169 36.8596 34.8051 37.5017 35.2804 37.5017C35.3698 37.5017 35.464 37.4723 35.5439 37.4184L36.9838 36.4184C37.205 36.2665 37.2661 35.9528 37.1155 35.7273C37.0244 35.5833 36.8744 35.5044 36.7207 35.5026ZM36.7207 37.0022C36.6285 37.0014 36.535 37.0281 36.4521 37.085L35.0122 38.085C34.6169 38.3595 34.8098 39.0016 35.2804 39.0016C35.3698 39.0016 35.464 38.9723 35.5439 38.9183L36.9838 37.9184C37.205 37.7664 37.2661 37.4527 37.1155 37.2223C37.0244 37.0814 36.8744 37.0036 36.7207 37.0022ZM30.0007 37.5017C29.7372 37.5017 29.5208 37.7271 29.5208 38.0016C29.5208 38.281 29.7325 38.5017 30.0007 38.5017C30.2642 38.5017 30.4806 38.2761 30.4806 38.0016C30.4806 37.7271 30.2642 37.5017 30.0007 37.5017ZM38.4144 39.4869L40.3342 40.6388L32.3959 44.6976V42.3251L38.4144 39.4869ZM41.5201 42.5064C41.2566 42.5064 41.04 42.7319 41.04 43.0064C41.04 43.2809 41.2566 43.5064 41.5201 43.5064C41.7836 43.5064 42 43.2809 42 43.0064C42 42.727 41.7883 42.5064 41.5201 42.5064ZM23.7564 43.5064C23.4929 43.5064 23.2764 43.7318 23.2764 44.0063C23.2764 44.2808 23.4929 44.5064 23.7564 44.5064C24.0199 44.5064 24.2363 44.2808 24.2363 44.0063C24.2363 43.7269 24.0199 43.5064 23.7564 43.5064ZM38.1602 44.5064C37.8967 44.5064 37.6802 44.7318 37.6802 45.0063C37.6802 45.2808 37.8967 45.5064 38.1602 45.5064C38.4238 45.5064 38.6402 45.2808 38.6402 45.0063C38.6402 44.7269 38.4238 44.5064 38.1602 44.5064Z" fill="white"/>
</g>
</svg>
