<svg width="29" height="29" viewBox="0 0 29 29" fill="none" xmlns="http://www.w3.org/2000/svg">
<g id="icons8-kick 2">
<path id="Vector" d="M9.66667 2.41663C9.02573 2.41663 8.41104 2.67124 7.95783 3.12445C7.50461 3.57766 7.25 4.19235 7.25 4.83329C7.25 5.47423 7.50461 6.08892 7.95783 6.54213C8.41104 6.99535 9.02573 7.24996 9.66667 7.24996C10.3076 7.24996 10.9223 6.99535 11.3755 6.54213C11.8287 6.08892 12.0833 5.47423 12.0833 4.83329C12.0833 4.19235 11.8287 3.57766 11.3755 3.12445C10.9223 2.67124 10.3076 2.41663 9.66667 2.41663Z" fill="white"/>
<path id="Vector_2" d="M6.4043 17.0375L4.71263 13.05C4.47096 12.325 4.5918 11.6 5.07513 10.9959L7.61263 8.57921C7.8543 8.33754 8.2168 8.09587 8.5793 8.09587L11.6001 7.73337L14.0168 6.76671L14.621 3.02087L17.0376 3.38337L16.4335 7.49171C16.3126 8.09587 15.9501 8.70004 15.2251 8.94171L12.0835 10.15L9.18346 10.5125L7.1293 12.4459L8.70013 16.0709L6.4043 17.0375ZM9.3043 10.2709C9.3043 10.3917 9.3043 10.3917 9.3043 10.2709V10.2709Z" fill="white"/>
<path id="Vector_3" d="M15.7087 11.9625C14.2587 12.6875 12.3253 11.3584 12.3253 8.33752L7.85449 8.94169C8.70033 15.1042 11.7212 14.6209 12.6878 18.2459C13.4128 21.025 13.7753 14.8625 13.7753 14.8625C13.7753 14.8625 17.4003 11.1167 15.7087 11.9625Z" fill="white"/>
<path id="Vector_4" d="M12.0832 26.5833H14.4999L15.7082 21.2667C15.829 20.9042 15.829 20.5417 15.7082 20.1792L14.4999 15.3458L24.8915 10.3917L23.804 8.21667L11.7207 14.0167L13.5332 20.7833L12.0832 26.5833Z" fill="white"/>
</g>
</svg>
