<svg width="11" height="11" viewBox="0 0 11 11" fill="none" xmlns="http://www.w3.org/2000/svg">
<g clip-path="url(#clip0_329_684)">
<path d="M9.10335 9.10084H9.07665V8.58085C9.07665 8.25558 8.81202 7.99098 8.48677 7.99098H8.21343V5.15465C8.21343 3.6587 6.99638 2.44165 5.50042 2.44165C4.00447 2.44165 2.78742 3.6587 2.78742 5.15465V7.99098H2.51407C2.1888 7.99098 1.9242 8.2556 1.9242 8.58085V9.10084H1.89749C1.57222 9.10084 1.30762 9.36546 1.30762 9.69071V10.4573C1.30762 10.5936 1.41803 10.704 1.55426 10.704H9.44663C9.58284 10.704 9.69327 10.5936 9.69327 10.4573V9.69071C9.69323 9.36546 9.4286 9.10084 9.10335 9.10084ZM3.28068 5.15465C3.28068 3.93069 4.27646 2.93493 5.5004 2.93493C6.72437 2.93493 7.72012 3.93071 7.72012 5.15465V7.99098H5.74704V6.62315L6.53227 6.88492C6.55775 6.89341 6.58407 6.89757 6.61024 6.89757C6.66137 6.89757 6.71195 6.88167 6.75447 6.85102C6.81877 6.80467 6.8569 6.73021 6.8569 6.65095V4.80117C6.8569 4.72189 6.81879 4.64745 6.75447 4.60111C6.69016 4.55475 6.60745 4.54211 6.53227 4.56721L5.5004 4.91113L4.46853 4.56716C4.39335 4.54211 4.31066 4.5547 4.24634 4.60107C4.18203 4.64741 4.1439 4.72187 4.1439 4.80113V6.65091C4.1439 6.73019 4.18201 6.80463 4.24634 6.85097C4.28887 6.88163 4.33945 6.89753 4.39056 6.89753C4.41673 6.89753 4.44307 6.89336 4.46853 6.88488L5.25376 6.62311V7.99093H3.28066V5.15465H3.28068ZM5.74704 6.10319V6.00554V5.34885L6.36364 5.14333V6.30873L5.74704 6.10319ZM5.25376 5.34885V6.00554V6.10319L4.63716 6.30871V5.14331L5.25376 5.34885ZM2.41744 8.58085C2.41744 8.52757 2.46077 8.48424 2.51405 8.48424H8.48677C8.54005 8.48424 8.58339 8.52757 8.58339 8.58085V9.10084H2.41744V8.58085ZM9.19997 10.2107H9.19994H1.80086V9.69074C1.80086 9.63745 1.84419 9.59412 1.89747 9.59412H9.10339C9.15668 9.59412 9.20001 9.63745 9.20001 9.69074V10.2107H9.19997Z" fill="white"/>
<path d="M2.29372 5.14227C2.29372 5.00606 2.18329 4.89563 2.04707 4.89563H0.246641C0.11043 4.89563 0 5.00606 0 5.14227C0 5.27848 0.11043 5.38891 0.246641 5.38891H2.0471C2.18331 5.38891 2.29372 5.2785 2.29372 5.14227Z" fill="white"/>
<path d="M10.7532 4.89563H8.9527C8.81648 4.89563 8.70605 5.00606 8.70605 5.14227C8.70605 5.27848 8.81648 5.38891 8.9527 5.38891H10.7532C10.8894 5.38891 10.9998 5.27848 10.9998 5.14227C10.9998 5.00606 10.8894 4.89563 10.7532 4.89563Z" fill="white"/>
<path d="M5.49957 1.28246C5.63578 1.28246 5.74621 1.17203 5.74621 1.03582V0.542539C5.74621 0.406328 5.63578 0.295898 5.49957 0.295898C5.36336 0.295898 5.25293 0.406328 5.25293 0.542539V1.03582C5.25293 1.17205 5.36336 1.28246 5.49957 1.28246Z" fill="white"/>
<path d="M1.39288 3.05596L1.82006 3.3026C1.8589 3.32501 1.90129 3.33567 1.94316 3.33567C2.02839 3.33567 2.1113 3.29145 2.15697 3.21232C2.2251 3.09435 2.18467 2.94351 2.0667 2.87543L1.63952 2.62879C1.52157 2.56068 1.37071 2.60109 1.30263 2.71906C1.2345 2.83704 1.27493 2.98788 1.39288 3.05596Z" fill="white"/>
<path d="M7.10285 2.36568C7.1417 2.38811 7.18409 2.39874 7.22596 2.39874C7.31119 2.39874 7.3941 2.35453 7.43977 2.2754L8.33999 0.716172C8.40812 0.598202 8.36768 0.44736 8.24971 0.379276C8.13176 0.31117 7.98092 0.351582 7.91282 0.469553L7.01258 2.02878C6.94447 2.14671 6.98488 2.29755 7.10285 2.36568Z" fill="white"/>
<path d="M3.56023 2.27529C3.60591 2.35442 3.6888 2.39863 3.77405 2.39863C3.81588 2.39863 3.85831 2.38798 3.89715 2.36557C4.01512 2.29746 4.05553 2.14662 3.98743 2.02867L3.08721 0.469445C3.01908 0.351453 2.86826 0.311041 2.75031 0.379168C2.63234 0.447274 2.59193 0.598115 2.66004 0.716065L3.56023 2.27529Z" fill="white"/>
<path d="M9.05645 3.33579C9.09828 3.33579 9.14071 3.32514 9.17955 3.30273L9.60672 3.05609C9.7247 2.98798 9.76511 2.83714 9.697 2.71919C9.6289 2.6012 9.47806 2.56081 9.36011 2.62891L8.93293 2.87555C8.81496 2.94366 8.77455 3.0945 8.84265 3.21245C8.88831 3.29156 8.97122 3.33579 9.05645 3.33579Z" fill="white"/>
</g>
<defs>
<clipPath id="clip0_329_684">
<rect width="11" height="11" fill="white"/>
</clipPath>
</defs>
</svg>
