<svg width="26" height="25" viewBox="0 0 26 25" fill="none" xmlns="http://www.w3.org/2000/svg">
<path id="Vector" d="M15.0138 0C14.8369 0 14.6623 0.0355304 14.4877 0.088826C14.1363 0.197638 13.8007 0.401937 13.5082 0.692843L6.68765 7.37256H2.73319C1.76498 7.37256 0.973633 8.14756 0.973633 9.09578V15.9176C0.973633 16.8658 1.76498 17.6408 2.73319 17.6408H6.68765L13.49 24.2673C14.1385 24.9046 14.9707 25.1844 15.6487 24.8713C16.3312 24.5559 16.6645 23.7965 16.6645 22.9171V1.88311C16.6645 1.03038 16.2201 0.321994 15.5398 0.088826C15.3698 0.0310894 15.1906 0 15.0138 0ZM15.0319 1.13697C15.0909 1.13697 15.1362 1.14141 15.177 1.15474C15.3426 1.21025 15.5036 1.3546 15.5036 1.88311V22.9171C15.5036 23.5233 15.2995 23.7943 15.1589 23.8587C15.0183 23.9231 14.7349 23.9297 14.2882 23.4856L6.97788 16.3262C6.96655 16.3196 6.95294 16.3129 6.9416 16.3084C6.98469 16.3462 6.79649 15.9865 6.79649 15.7755V9.2379C6.79649 9.02694 6.99149 8.66275 6.9416 8.70495C6.95521 8.69384 6.96655 8.68274 6.97788 8.66941L14.3245 1.49228C14.5966 1.22358 14.8528 1.13919 15.0319 1.13697ZM2.73319 8.54506H5.74438C5.66956 8.76268 5.63554 9.00029 5.63554 9.2379V15.7755C5.63554 16.0131 5.67182 16.2485 5.74438 16.4683H2.73319C2.42028 16.4683 2.17086 16.2241 2.17086 15.9176V9.09578C2.17086 8.78933 2.42028 8.54506 2.73319 8.54506ZM19.5124 9.07801C19.4875 9.08246 19.4626 9.08912 19.4399 9.09578C19.2222 9.13353 19.0476 9.28898 18.9864 9.4955C18.9252 9.70424 18.9887 9.9263 19.1496 10.0729L21.6348 12.5067L19.1496 14.9405C18.9184 15.167 18.9184 15.5312 19.1496 15.7577C19.3809 15.9842 19.7528 15.9842 19.9841 15.7577L22.4692 13.3239L24.9544 15.7577C25.1856 15.9842 25.5575 15.9842 25.7888 15.7577C26.0201 15.5312 26.0201 15.167 25.7888 14.9405L23.3036 12.5067L25.7888 10.0729C25.977 9.90188 26.0269 9.63096 25.9135 9.40667C25.8024 9.18016 25.5507 9.05581 25.299 9.09578C25.1698 9.1091 25.0473 9.16684 24.9544 9.25567L22.4692 11.6895L19.9841 9.25567C19.8639 9.12909 19.6893 9.06469 19.5124 9.07801Z" fill="white"/>
</svg>
