<svg xmlns="http://www.w3.org/2000/svg" width="32" height="16" viewBox="0 0 22 16" fill="white">
<path d="M11 0C3 0 0 8 0 8C0 8 3 16 11 16C19 16 22 8 22 8C22 8 19 0 11 0ZM11 2C16.276 2 18.9446 6.26709 19.8086 7.99609C18.9436 9.71309 16.255 14 11 14C5.724 14 3.05541 9.73291 2.19141 8.00391C3.05741 6.28691 5.745 2 11 2ZM11 4C8.791 4 7 5.791 7 8C7 10.209 8.791 12 11 12C13.209 12 15 10.209 15 8C15 5.791 13.209 4 11 4ZM11 6C12.105 6 13 6.895 13 8C13 9.105 12.105 10 11 10C9.895 10 9 9.105 9 8C9 6.895 9.895 6 11 6Z" fill="white"/>
</svg>