<svg width="21" height="18" viewBox="0 0 21 18" fill="none" xmlns="http://www.w3.org/2000/svg">
<path d="M10.5 0.379028L0.649539 10.2295C0.408757 10.4595 0.311726 10.8027 0.396179 11.1261C0.480632 11.4478 0.732195 11.6993 1.05384 11.7838C1.37727 11.8682 1.72048 11.7712 1.95048 11.5304L10.5 2.9809L19.0495 11.5304C19.2795 11.7712 19.6227 11.8682 19.9462 11.7838C20.2678 11.6993 20.5194 11.4478 20.6038 11.1261C20.6883 10.8027 20.5913 10.4595 20.3505 10.2295L10.5 0.379028ZM10.5 6.35903L0.649539 16.2095C0.408757 16.4395 0.311726 16.7827 0.396179 17.1061C0.480632 17.4278 0.732195 17.6793 1.05384 17.7638C1.37727 17.8482 1.72048 17.7512 1.95048 17.5104L10.5 8.9609L19.0495 17.5104C19.2795 17.7512 19.6227 17.8482 19.9462 17.7638C20.2678 17.6793 20.5194 17.4278 20.6038 17.1061C20.6883 16.7827 20.5913 16.4395 20.3505 16.2095L10.5 6.35903Z" fill="white"/>
</svg>
