<svg width="13" height="13" viewBox="0 0 13 13" fill="none" xmlns="http://www.w3.org/2000/svg">
<path id="Vector" d="M0.104102 0.969922C0.0355469 0.868359 0 0.746484 0 0.624609C0 0.279297 0.279297 0 0.624609 0H3.3998C3.68418 0 3.95078 0.149805 4.09551 0.393555L5.83477 3.29063C4.61094 3.44551 3.5166 4.0168 2.70156 4.8623L0.104102 0.969922ZM12.8934 0.969922L10.2984 4.8623C9.4834 4.0168 8.38906 3.44551 7.16523 3.29063L8.90449 0.393555C9.05176 0.149805 9.31582 0 9.60019 0H12.3754C12.7207 0 13 0.279297 13 0.624609C13 0.746484 12.9645 0.868359 12.8959 0.969922H12.8934ZM2.03125 8.53125C2.03125 7.34606 2.50206 6.20942 3.34012 5.37137C4.17817 4.53331 5.31481 4.0625 6.5 4.0625C7.68519 4.0625 8.82183 4.53331 9.65988 5.37137C10.4979 6.20942 10.9688 7.34606 10.9688 8.53125C10.9688 9.71644 10.4979 10.8531 9.65988 11.6911C8.82183 12.5292 7.68519 13 6.5 13C5.31481 13 4.17817 12.5292 3.34012 11.6911C2.50206 10.8531 2.03125 9.71644 2.03125 8.53125ZM6.71328 6.12168C6.62695 5.94395 6.37559 5.94395 6.28672 6.12168L5.71797 7.27441C5.68242 7.34551 5.61641 7.39375 5.54023 7.40391L4.26562 7.58926C4.07012 7.61719 3.99395 7.85586 4.13359 7.99551L5.05527 8.89434C5.11113 8.9502 5.13652 9.02637 5.12383 9.10508L4.90547 10.3721C4.87246 10.565 5.07559 10.7148 5.25078 10.6234L6.38828 10.0242C6.45684 9.98867 6.54062 9.98867 6.60918 10.0242L7.74668 10.6234C7.92188 10.7148 8.125 10.5676 8.09199 10.3721L7.87363 9.10508C7.86094 9.02891 7.88633 8.9502 7.94219 8.89434L8.86387 7.99551C9.00605 7.8584 8.92734 7.61973 8.73184 7.58926L7.45977 7.40391C7.38359 7.39375 7.31504 7.34297 7.28203 7.27441L6.71328 6.12168Z" fill="#00C400"/>
</svg>
