<svg width="8" height="14" viewBox="0 0 8 14" fill="none" xmlns="http://www.w3.org/2000/svg">
<path d="M4.76749 1.53455C4.62631 1.53455 4.51172 1.64913 4.51172 1.79032V4.85961C4.51172 5.0008 4.62631 5.11539 4.76749 5.11539C4.90868 5.11539 5.02327 5.0008 5.02327 4.85961V1.79032C5.02327 1.64913 4.90868 1.53455 4.76749 1.53455Z" fill="white"/>
<path d="M3.23331 1.53455C3.09213 1.53455 2.97754 1.64913 2.97754 1.79032V4.85961C2.97754 5.0008 3.09213 5.11539 3.23331 5.11539C3.3745 5.11539 3.48909 5.0008 3.48909 4.85961V1.79032C3.48909 1.64913 3.3745 1.53455 3.23331 1.53455Z" fill="white"/>
<path d="M7.81831 0.271121C7.67252 0.0987288 7.45869 0 7.23259 0H0.767638C0.541534 0 0.327707 0.0987288 0.181915 0.271121C0.0361239 0.443513 -0.0267966 0.670129 0.0105464 0.893164L1.33955 8.86718L0.955377 8.92294C0.664306 8.9654 0.426947 9.16541 0.335891 9.44523C0.244835 9.72505 0.319521 10.0264 0.529768 10.2315L1.6122 11.2863C1.67257 11.3446 1.70019 11.4295 1.68587 11.5119L1.43009 13.0015C1.38047 13.2916 1.49711 13.5791 1.73498 13.752C1.86951 13.8497 2.02707 13.8993 2.18514 13.8993C2.30689 13.8993 2.43017 13.8696 2.54322 13.8103L3.88092 13.1074C3.95561 13.0685 4.04411 13.0685 4.11879 13.1074L5.45649 13.8103C5.71585 13.9469 6.02636 13.9249 6.26474 13.752C6.50261 13.5791 6.61924 13.2921 6.56962 13.0015L6.31385 11.5119C6.29952 11.4295 6.32715 11.3446 6.38751 11.2863L7.46995 10.2315C7.68071 10.0264 7.75488 9.72505 7.66382 9.44523C7.57277 9.1649 7.33541 8.9654 7.04434 8.92294L6.66017 8.86718L7.98917 0.893164C8.02702 0.67064 7.96461 0.443513 7.81831 0.271121ZM6.11332 9.04111C6.10207 9.10914 6.11844 9.17872 6.15885 9.23396C6.19926 9.28921 6.26065 9.32655 6.32868 9.33627L6.9717 9.42989C7.06992 9.4437 7.14716 9.50918 7.17785 9.60381C7.20855 9.69845 7.1845 9.79615 7.1134 9.86572L6.03096 10.9205C5.84987 11.097 5.76751 11.3513 5.81048 11.5999L6.06626 13.0895C6.08314 13.1872 6.04477 13.2808 5.96446 13.3391C5.88415 13.3975 5.78337 13.4041 5.69487 13.3586L4.35769 12.6557C4.13363 12.5381 3.86711 12.5381 3.64356 12.6557L2.30586 13.3586C2.21685 13.4041 2.11659 13.3975 2.03628 13.3391C1.95597 13.2808 1.91811 13.1872 1.93448 13.0895L2.19025 11.5999C2.23271 11.3513 2.15035 11.097 1.96978 10.9205L0.88734 9.86572C0.815724 9.79615 0.791681 9.69845 0.822885 9.60381C0.85409 9.50918 0.930822 9.44421 1.02904 9.42989L1.67206 9.33627C1.67206 9.33627 1.67206 9.33627 1.67257 9.33627L2.52532 9.21248C2.77495 9.17565 2.99083 9.0186 3.10235 8.7925L3.77094 7.43792C3.85944 7.25887 4.14181 7.25887 4.2298 7.43792L4.79404 8.58072C4.85645 8.70656 5.0094 8.75976 5.13626 8.69684C5.26313 8.63443 5.3153 8.48096 5.25238 8.3541L4.68815 7.2113C4.5577 6.94683 4.29425 6.78313 4.00011 6.78313C3.70597 6.78313 3.44253 6.94683 3.31208 7.21079L2.64349 8.56537C2.60614 8.64108 2.53402 8.69377 2.45114 8.70553L1.84598 8.79352L0.514933 0.80927C0.502656 0.734072 0.522606 0.660409 0.572226 0.602093C0.621847 0.543776 0.690906 0.511549 0.767638 0.511549H7.2331C7.30983 0.511549 7.37889 0.543265 7.42851 0.602093C7.47813 0.660921 7.49808 0.734072 7.4858 0.80927L6.11332 9.04111Z" fill="white"/>
</svg>
